<svg width="280" height="74" viewBox="0 0 280 74" fill="none" xmlns="http://www.w3.org/2000/svg">
<path d="M16.32 72.384H-4.79817e-05L36.096 1.344H50.784L64.32 72.384H48.96L46.464 57.216H23.808L16.32 72.384ZM37.92 28.32L30.144 44.544H44.256L41.568 28.32C41.28 26.592 40.8 23.232 40.8 21.6C40.224 23.232 39.072 26.016 37.92 28.32ZM84.2377 72.384H70.7977L82.2217 1.90735e-06H96.5257L91.8217 30.24C95.2777 25.728 100.27 23.04 106.894 23.04C118.222 23.04 126.574 32.064 126.574 45.12C126.574 62.016 115.918 73.536 101.518 73.536C94.8937 73.536 88.5577 70.368 85.9657 66.048L84.2377 72.384ZM88.8457 50.496C88.8457 56.736 92.6857 60.96 98.8297 60.96C106.222 60.96 112.27 54.432 112.27 46.08C112.27 39.84 108.43 35.616 102.286 35.616C94.8937 35.616 88.8457 42.144 88.8457 50.496ZM132.133 51.744C132.133 35.616 144.709 23.04 160.837 23.04C175.141 23.04 184.741 31.776 184.741 44.832C184.741 60.96 172.165 73.536 156.037 73.536C141.733 73.536 132.133 64.8 132.133 51.744ZM146.725 50.496C146.725 56.736 150.565 60.96 156.709 60.96C164.101 60.96 170.149 54.432 170.149 46.08C170.149 39.84 166.309 35.616 160.165 35.616C152.773 35.616 146.725 42.144 146.725 50.496ZM226.673 24.384H240.977L233.393 72.384H219.953L219.761 67.2C215.729 71.712 211.889 73.632 206.129 73.632C195.473 73.632 188.657 64.608 190.385 53.664L195.089 24.384H209.393L205.265 50.208C204.209 56.64 207.185 60.768 212.273 60.768C217.841 60.768 221.489 57.312 222.545 50.592L226.673 24.384ZM263.239 72.384H248.935L254.599 36.288H245.671L247.591 24.384H256.519L258.823 9.6H273.127L270.823 24.384H279.751L277.831 36.288H268.903L263.239 72.384Z" fill="black"/>
</svg>
