<svg width="305" height="204" viewBox="0 0 305 204" fill="none" xmlns="http://www.w3.org/2000/svg">
<path d="M26.2081 1.05601L17.1841 58.08H44.8321L42.6241 72.096H5.10216e-05L11.2321 1.05601H26.2081ZM50.1338 51.456C50.1338 35.328 62.7098 22.752 78.8378 22.752C93.1418 22.752 102.742 31.488 102.742 44.544C102.742 60.672 90.1658 73.248 74.0378 73.248C59.7338 73.248 50.1338 64.512 50.1338 51.456ZM64.7258 50.208C64.7258 56.448 68.5658 60.672 74.7098 60.672C82.1018 60.672 88.1498 54.144 88.1498 45.792C88.1498 39.552 84.3098 35.328 78.1658 35.328C70.7738 35.328 64.7258 41.856 64.7258 50.208ZM146.855 24L144.743 37.44H140.135C131.879 37.44 126.215 41.376 124.775 50.784L121.415 72.096H107.111L114.695 24.096H128.135L127.847 31.104C130.535 26.4 135.335 23.328 141.383 23.328C143.207 23.328 145.127 23.52 146.855 24ZM162.514 16.416C158.482 16.416 155.602 13.44 155.602 9.50401C155.602 4.512 160.114 3.8147e-06 165.202 3.8147e-06C169.234 3.8147e-06 172.114 2.97601 172.114 6.91201C172.114 11.808 167.506 16.416 162.514 16.416ZM146.674 72.096L154.258 24.096H168.562L160.978 72.096H146.674ZM170.738 56.928H184.37C184.562 60.576 187.058 62.592 191.378 62.592C195.506 62.592 198.29 60.864 198.29 58.272C198.29 56.16 197.33 55.2 194.45 54.336L186.002 51.648C179.378 49.536 175.25 45.504 175.25 38.976C175.25 28.896 182.93 22.752 195.602 22.752C206.258 22.752 213.65 29.376 213.65 38.784H200.018C200.018 35.424 197.81 33.216 194.354 33.216C190.706 33.216 188.786 34.656 188.786 37.344C188.786 39.36 190.322 40.896 193.49 41.952L201.746 44.64C208.658 46.848 212.018 50.784 212.018 56.544C212.018 67.008 203.954 73.152 190.322 73.152C178.418 73.152 170.738 66.816 170.738 56.928ZM19.4881 202.096L4.70405 131.056H20.0641L27.5521 167.632C28.4161 172.048 29.0881 176.272 29.6641 182.512C32.8321 175.312 34.3681 172.048 36.5761 167.728L55.4881 131.056H71.8081L35.0401 202.096H19.4881ZM99.8618 154.096H114.166L106.582 202.096H93.1418L92.9498 196.912C88.9178 201.424 85.0778 203.344 79.3178 203.344C68.6618 203.344 61.8458 194.32 63.5738 183.376L68.2778 154.096H82.5818L78.4538 179.92C77.3978 186.352 80.3738 190.48 85.4618 190.48C91.0298 190.48 94.6778 187.024 95.7338 180.304L99.8618 154.096ZM132.011 202.096H117.707L129.131 129.712H143.435L132.011 202.096ZM157.511 202.096H143.207L154.631 129.712H168.935L157.511 202.096ZM184.451 146.416C180.419 146.416 177.539 143.44 177.539 139.504C177.539 134.512 182.051 130 187.139 130C191.171 130 194.051 132.976 194.051 136.912C194.051 141.808 189.443 146.416 184.451 146.416ZM168.611 202.096L176.195 154.096H190.499L182.915 202.096H168.611ZM194.884 181.456C194.884 165.328 207.46 152.752 223.588 152.752C237.892 152.752 247.492 161.488 247.492 174.544C247.492 190.672 234.916 203.248 218.788 203.248C204.484 203.248 194.884 194.512 194.884 181.456ZM209.476 180.208C209.476 186.448 213.316 190.672 219.46 190.672C226.852 190.672 232.9 184.144 232.9 175.792C232.9 169.552 229.06 165.328 222.916 165.328C215.524 165.328 209.476 171.856 209.476 180.208ZM266.165 202.096H251.861L259.445 154.096H272.885L273.077 159.28C277.109 154.48 281.045 152.56 286.805 152.56C297.461 152.56 304.757 161.584 303.029 172.528L298.325 202.096H284.021L288.149 175.984C289.205 169.552 286.229 165.424 280.661 165.424C275.093 165.424 271.349 169.168 270.293 175.888L266.165 202.096Z" fill="black"/>
</svg>
